<svg aria-hidden="true" xmlns="http://www.w3.org/2000/svg" xmlns:xlink="http://www.w3.org/1999/xlink"><symbol viewBox="0 0 15 14" id="best-cart" xmlns="http://www.w3.org/2000/svg">
<path d="M0.173237 0C0.0775571 0 0 0.0775571 0 0.173237C0 0.268917 0.0775571 0.346474 0.173237 0.346474H2.13248C3.03504 2.59528 3.93345 4.84502 4.83309 7.09553L3.99422 9.1089C3.94698 9.21508 4.04036 9.35522 4.15658 9.35244H12.816C12.9074 9.35413 12.9916 9.27078 12.9916 9.1792C12.9916 9.08775 12.9074 9.00476 12.816 9.00597H4.41636L5.147 7.25792L13.6981 6.57596C13.7687 6.5692 13.8322 6.51483 13.8496 6.44609L14.8888 1.94322C14.9113 1.84271 14.8241 1.7329 14.721 1.73217H3.06332L2.41387 0.108539C2.38802 0.0445122 2.32061 -0.000426852 2.25151 0.000296824L0.173237 0ZM3.20402 2.07822H14.5045L13.5412 6.24554L5.13636 6.91661L3.20402 2.07822ZM5.88846 10.3912C5.12532 10.3912 4.50292 11.0136 4.50292 11.7767C4.50292 12.5399 5.12532 13.1623 5.88846 13.1623C6.65159 13.1623 7.27399 12.5399 7.27399 11.7767C7.27399 11.0136 6.65159 10.3912 5.88846 10.3912ZM11.0841 10.3912C10.3209 10.3912 9.69855 11.0136 9.69855 11.7767C9.69855 12.5399 10.3209 13.1623 11.0841 13.1623C11.8472 13.1623 12.4696 12.5399 12.4696 11.7767C12.4696 11.0136 11.8472 10.3912 11.0841 10.3912ZM5.88846 10.7376C6.46446 10.7376 6.92764 11.2007 6.92764 11.7767C6.92764 12.3528 6.46446 12.8159 5.88846 12.8159C5.31258 12.8159 4.84927 12.3528 4.84927 11.7767C4.84927 11.2009 5.31245 10.7376 5.88846 10.7376ZM11.0841 10.7376C11.66 10.7376 12.1233 11.2007 12.1233 11.7767C12.1233 12.3528 11.6601 12.8159 11.0841 12.8159C10.5081 12.8159 10.0449 12.3528 10.0449 11.7767C10.0449 11.2009 10.5081 10.7376 11.0841 10.7376Z"/>
</symbol><symbol viewBox="0 0 15 13" id="best-like" xmlns="http://www.w3.org/2000/svg">
<path d="M13.8105 1.19174C13.0406 0.423156 12.0174 0 10.93 0C9.84234 0 8.8194 0.423156 8.04957 1.19174L7.49978 1.74153L6.95024 1.19174C6.18165 0.423156 5.15897 0 4.07071 0C2.98246 0 1.95904 0.423156 1.18896 1.19187C-0.396321 2.78014 -0.396321 5.36452 1.18896 6.95314L7.04417 12.8049C7.16582 12.9266 7.32752 12.9935 7.49981 12.9935C7.6721 12.9935 7.83403 12.9266 7.95544 12.8051L13.811 6.95276C15.3964 5.36435 15.3964 2.77979 13.8107 1.19148L13.8105 1.19174ZM13.5915 6.73362L7.73602 12.5856C7.67308 12.6486 7.58924 12.6834 7.49968 12.6834C7.41013 12.6834 7.32642 12.6486 7.26335 12.5856L1.40846 6.73394C-0.0562992 5.26632 -0.0562992 2.87844 1.40833 1.41114C2.1197 0.701269 3.06526 0.31021 4.07079 0.31021C5.07631 0.31021 6.02102 0.701014 6.73088 1.41101L7.39012 2.07025C7.45057 2.13082 7.54896 2.13082 7.60929 2.07025L8.26852 1.41114C8.97963 0.701269 9.92497 0.31021 10.9297 0.31021C11.9348 0.31021 12.88 0.701269 13.5911 1.41101C15.056 2.87825 15.056 5.26619 13.5914 6.73349L13.5915 6.73362Z"/>
</symbol><symbol viewBox="0 0 15 13" id="best-update" xmlns="http://www.w3.org/2000/svg">
<path fill-rule="evenodd" clip-rule="evenodd" d="M13.5543 7.43886C13.5179 7.37742 13.4479 7.34413 13.3773 7.35478C13.3067 7.3653 13.2495 7.41769 13.2327 7.48709C12.8487 8.98584 11.8718 10.3474 10.4043 11.1948C7.55753 12.8383 3.96112 11.9214 2.36216 9.15163C1.87097 8.30098 1.62704 7.37479 1.60573 6.45229L3.4161 7.60343V7.60355C3.45539 7.62938 3.50337 7.63831 3.54927 7.62852C3.59516 7.61861 3.63531 7.5907 3.6604 7.55104C3.68562 7.51139 3.69394 7.46328 3.68341 7.41751C3.67289 7.37173 3.64437 7.33207 3.60435 7.30747L1.52348 5.98435C1.48309 5.95864 1.43401 5.95057 1.38762 5.96195C1.34111 5.97333 1.30133 6.0032 1.27746 6.04457L0.0254645 8.21H0.0253421C0.00098517 8.2504 -0.00623606 8.29886 0.00551374 8.34452C0.0172635 8.39018 0.0468836 8.42922 0.0876424 8.45284C0.128523 8.47646 0.177115 8.48258 0.222524 8.46998C0.267933 8.45737 0.306367 8.42689 0.329131 8.38564L1.26914 6.75983C1.33315 7.63937 1.59006 8.51646 2.05812 9.32725C3.75443 12.2653 7.57284 13.2349 10.5796 11.4988C12.1299 10.6038 13.1656 9.16228 13.5726 7.57429V7.57417C13.5851 7.52839 13.5785 7.47956 13.5542 7.4388L13.5543 7.43886Z"/>
<path fill-rule="evenodd" clip-rule="evenodd" d="M14.9742 4.09235C14.9419 4.0396 14.8841 4.00778 14.8222 4.00863C14.7603 4.00949 14.7033 4.0429 14.6725 4.09663L13.7538 5.64336C13.6944 4.74841 13.4356 3.85649 12.9602 3.03311C11.2639 0.0950767 7.44546 -0.874512 4.43868 0.861529C2.89622 1.75209 1.86149 3.18464 1.45243 4.76539H1.45255C1.43982 4.8108 1.44594 4.85939 1.46944 4.90027C1.49294 4.94103 1.53186 4.97077 1.57752 4.98252C1.62317 4.99439 1.67164 4.98729 1.71203 4.96294C1.75242 4.9387 1.78131 4.89917 1.7922 4.85327C2.17823 3.36151 3.15387 2.00827 4.61417 1.1653C7.4609 -0.478245 11.0573 0.43886 12.6563 3.20847C13.1516 4.06636 13.397 5.00098 13.4151 5.93278L11.6224 4.76143C11.5835 4.73499 11.5355 4.72533 11.4893 4.73463C11.4432 4.74393 11.4027 4.77135 11.377 4.81076C11.3513 4.85017 11.3425 4.89815 11.3525 4.94417C11.3625 4.99019 11.3907 5.03022 11.4305 5.05519L13.4965 6.40523C13.5366 6.43142 13.5855 6.44011 13.6322 6.42922C13.6788 6.41845 13.7189 6.38907 13.7433 6.34794L14.9742 4.27576C15.0088 4.21945 15.0088 4.14858 14.9742 4.09228L14.9742 4.09235Z"/>
</symbol><symbol viewBox="0 0 22 22" id="footer-facebook-icon" xmlns="http://www.w3.org/2000/svg">
<path d="M10.9332 0C4.89557 0 0 4.92084 0 10.9897C0 16.4993 4.03815 21.049 9.29872 21.8437V13.9019H6.59359V11.0133H9.29872V9.09099C9.29872 5.90864 10.8412 4.5121 13.4727 4.5121C14.7325 4.5121 15.3999 4.60636 15.7149 4.64863V7.16991H13.9201C12.8032 7.16991 12.413 8.23507 12.413 9.43463V11.0133H15.6867L15.243 13.9019H12.413V21.8665C17.7493 21.1395 21.8665 16.5534 21.8665 10.9897C21.8665 4.92084 16.9713 0 10.9332 0Z"/>
</symbol><symbol viewBox="0 0 20 19" id="footer-instagram-icon" xmlns="http://www.w3.org/2000/svg">
<path d="M5.61114 0C2.51733 0 0 2.40433 0 5.35825V13.011C0 15.9646 2.51882 18.3678 5.6134 18.3678H13.6306C16.7248 18.3678 19.2425 15.9635 19.2425 13.0096V5.35609C19.2425 2.40291 16.7237 0 13.6291 0H5.61114ZM15.394 2.93886C15.8189 2.93886 16.1637 3.26801 16.1637 3.67357C16.1637 4.07913 15.8189 4.40828 15.394 4.40828C14.9691 4.40828 14.6243 4.07913 14.6243 3.67357C14.6243 3.26801 14.9691 2.93886 15.394 2.93886ZM9.62125 4.40828C12.3806 4.40828 14.6243 6.54997 14.6243 9.18392C14.6243 11.8179 12.3802 13.9596 9.62125 13.9596C6.86188 13.9596 4.6182 11.8175 4.6182 9.18392C4.6182 6.55034 6.86188 4.40828 9.62125 4.40828ZM9.62125 5.87771C7.70816 5.87771 6.1576 7.35779 6.1576 9.18392C6.1576 11.0101 7.70816 12.4901 9.62125 12.4901C11.5343 12.4901 13.0849 11.0101 13.0849 9.18392C13.0849 7.35779 11.5343 5.87771 9.62125 5.87771Z"/>
</symbol><symbol viewBox="0 0 25 21" id="footer-twitter-icon" xmlns="http://www.w3.org/2000/svg">
<path d="M24.4905 2.86094C23.5903 3.26765 22.6224 3.5388 21.6013 3.66693C22.6395 3.03849 23.4381 2.03613 23.8129 0.851844C22.8415 1.43262 21.7655 1.85901 20.6205 2.0838C19.7062 1.09544 18.4021 0.4823 16.9572 0.4823C14.1817 0.4823 11.9324 2.75641 11.9324 5.56013C11.9324 5.95679 11.9778 6.34339 12.0636 6.71862C7.88831 6.50477 4.18517 4.48081 1.70769 1.409C1.2724 2.15946 1.02753 3.03849 1.02753 3.96607C1.02753 5.72894 1.91268 7.28059 3.26228 8.19505C2.43845 8.16924 1.66309 7.93571 0.984216 7.56092C0.984216 7.57623 0.984216 7.59897 0.984216 7.6204C0.984216 10.0839 2.71678 12.135 5.01328 12.602C4.59344 12.7192 4.15 12.7844 3.69285 12.7844C3.36821 12.7844 3.05214 12.7468 2.74594 12.6908C3.38536 14.7038 5.24057 16.1754 7.43844 16.2187C5.71874 17.5784 3.55304 18.3927 1.19778 18.3927C0.790804 18.3927 0.393257 18.3691 0 18.3205C2.22446 19.7572 4.86661 20.5995 7.70261 20.5995C16.944 20.5995 21.9993 12.8605 21.9993 6.14703C21.9993 5.92705 21.9924 5.70795 21.9821 5.49147C22.9689 4.78125 23.8189 3.88473 24.4905 2.86094Z"/>
</symbol><symbol viewBox="0 0 24 22" id="header-cart" xmlns="http://www.w3.org/2000/svg">
<path d="M23.0343 4.06237C23.0285 4.03061 23.0257 3.99906 23.0142 3.97012C23.0028 3.92973 22.9855 3.89516 22.9624 3.85778C22.9479 3.83185 22.9306 3.80593 22.9105 3.78282C22.8846 3.75107 22.8559 3.72514 22.8241 3.69922C22.7982 3.67912 22.7723 3.66184 22.7435 3.64455C22.709 3.62446 22.6716 3.6128 22.6312 3.60134C22.6111 3.59552 22.5938 3.58125 22.5707 3.57823C22.5562 3.57542 22.542 3.58105 22.5247 3.58105C22.5074 3.58105 22.4959 3.57241 22.4787 3.57241L5.29557 3.57261L4.77404 0.466851C4.76821 0.440926 4.75394 0.417815 4.7453 0.394906C4.73666 0.366168 4.72802 0.337228 4.71355 0.311303C4.69345 0.273924 4.67034 0.239359 4.64441 0.207605C4.62432 0.184494 4.60703 0.164397 4.58392 0.144298C4.55217 0.11556 4.5176 0.0952622 4.48022 0.0751626C4.4543 0.0606928 4.42837 0.0492373 4.39963 0.0377824C4.35924 0.0233127 4.31905 0.0176861 4.27584 0.0118575C4.25574 0.00904399 4.23846 0.000402329 4.21816 0.000402329L0.564743 0C0.253643 0 0 0.253623 0 0.564744C0 0.875865 0.250608 1.12949 0.564743 1.12949H3.74268L5.83435 13.5871C4.91811 13.8118 4.26138 14.6214 4.26138 15.5865V15.6844C4.3074 16.7994 5.218 17.6724 6.33298 17.6724L20.3119 17.6551C20.623 17.6551 20.8766 17.4015 20.8738 17.0903C20.8738 16.7792 20.6202 16.5284 20.3091 16.5284L6.33015 16.5457C5.82029 16.5457 5.40527 16.1482 5.38521 15.6613V15.5893C5.38521 15.0996 5.7568 14.699 6.24655 14.653L10.499 14.2728C10.5135 14.2728 10.5278 14.2728 10.5422 14.27L21.087 13.3306C21.1071 13.3278 21.1244 13.3192 21.1447 13.3134C21.1879 13.3047 21.2311 13.2933 21.2685 13.276C21.2944 13.2645 21.3175 13.2501 21.3404 13.2328C21.375 13.2097 21.4037 13.1868 21.4327 13.1578C21.4528 13.1377 21.47 13.1174 21.4873 13.0915C21.5104 13.0597 21.5277 13.0252 21.545 12.9878C21.5565 12.9591 21.5681 12.9331 21.5767 12.9014C21.5796 12.8869 21.5882 12.8755 21.5912 12.8582L23.0376 4.23499C23.0404 4.22052 23.0348 4.20906 23.0376 4.19459C23.04 4.17168 23.0486 4.15721 23.0486 4.13711C23.0486 4.11119 23.0372 4.08808 23.0342 4.06215L23.0343 4.06237ZM5.75967 6.34418L5.48313 4.69903H8.36422L8.64075 6.34418H5.75967ZM5.94978 7.47064H8.83086L9.15925 9.42684H6.27816L5.94978 7.47064ZM6.9524 13.452L6.46546 10.5536H9.34654L9.79028 13.1983L6.9524 13.452ZM13.0891 12.9045L10.9168 13.0976L10.4904 10.5536H13.0891L13.0891 12.9045ZM13.0891 9.42715H10.3003L9.97189 7.47094H13.0893L13.0891 9.42715ZM13.0891 6.34429H9.78461L9.50807 4.70217H13.0893L13.0891 6.34429ZM16.4658 12.6019L14.2158 12.8037V10.5536H16.8086L16.4658 12.6019ZM16.9987 9.42699H14.2155V7.47079H17.3271L16.9987 9.42699ZM14.2157 6.34413V4.69898H17.7911L17.5146 6.34413H14.2157ZM20.5541 12.2385L17.624 12.498L17.9495 10.5532H20.8335L20.5541 12.2385ZM21.0266 9.42679H18.1397L18.4681 7.47058H21.352L21.0266 9.42679ZM21.5422 6.34393H18.6583L18.9349 4.69878H21.8188L21.5422 6.34393Z"/>
<path d="M8.89976 18.3007C7.87985 18.3007 7.05005 19.1305 7.05005 20.1504C7.05005 21.1703 7.87985 22.0001 8.89976 22.0001C9.91966 22.0001 10.7495 21.1703 10.7495 20.1504C10.7495 19.1305 9.91966 18.3007 8.89976 18.3007ZM8.89976 20.8765C8.49922 20.8765 8.17665 20.5509 8.17665 20.1534C8.17665 19.7528 8.50222 19.4302 8.89976 19.4302C9.29729 19.4302 9.62286 19.7558 9.62286 20.1534C9.62286 20.5509 9.3003 20.8765 8.89976 20.8765Z"/>
<path d="M16.9581 18.3007C15.9382 18.3007 15.1084 19.1305 15.1084 20.1504C15.1084 21.1703 15.9382 22.0001 16.9581 22.0001C17.978 22.0001 18.8078 21.1703 18.8078 20.1504C18.8076 19.1305 17.978 18.3007 16.9581 18.3007ZM16.9581 20.8765C16.5576 20.8765 16.235 20.5509 16.235 20.1534C16.235 19.7528 16.5606 19.4302 16.9581 19.4302C17.3586 19.4302 17.6812 19.7558 17.6812 20.1534C17.6812 20.5509 17.3556 20.8765 16.9581 20.8765Z"/>
</symbol><symbol viewBox="0 0 23 22" id="header-person" xmlns="http://www.w3.org/2000/svg">
<path d="M21.6423 22C21.9451 22 22.1907 21.762 22.1907 21.4691C22.1907 17.0718 19.4208 13.1119 15.3423 11.5051C16.8254 10.3113 17.7716 8.51233 17.7716 6.50335C17.7716 2.91741 14.7579 0 11.0534 0C7.34925 0 4.33528 2.91755 4.33528 6.50335C4.33528 8.51304 5.28209 10.3124 6.76635 11.5065C2.79416 13.0857 0.190674 16.9656 0.190674 21.4691C0.190674 21.7622 0.43646 22 0.739047 22C1.04183 22 1.28742 21.762 1.28742 21.4691C1.28742 17.1397 3.93463 13.4542 7.8915 12.2398C8.83469 12.7287 9.91077 13.0071 11.0534 13.0071C12.1961 13.0071 13.2724 12.729 14.2154 12.2396C18.2735 13.4822 21.0937 17.2517 21.0937 21.469C21.0937 21.7624 21.3393 22 21.6423 22L21.6423 22ZM5.43202 6.50378C5.43202 3.50309 7.95378 1.0622 11.0533 1.0622C14.1532 1.0622 16.6747 3.50314 16.6747 6.50378C16.6747 9.50428 14.1531 11.9454 11.0533 11.9454C7.95374 11.9454 5.43202 9.50442 5.43202 6.50378Z"/>
</symbol><symbol viewBox="0 0 22 22" id="header-search" xmlns="http://www.w3.org/2000/svg">
<path d="M8.32379 0C3.73732 0 0 3.73732 0 8.32379C0 12.9103 3.73732 16.6476 8.32379 16.6476C10.2969 16.6476 12.1068 15.9521 13.5355 14.7989L20.4754 21.7388C20.8235 22.087 21.3905 22.0872 21.7389 21.7388C22.087 21.3906 22.0872 20.8237 21.7389 20.4753L14.8085 13.545C15.9602 12.1167 16.6479 10.2956 16.6479 8.32395C16.6479 3.73748 12.9105 0.000159169 8.32406 0.000159169L8.32379 0ZM8.32379 1.78378C11.9462 1.78378 14.8639 4.7014 14.8639 8.3239C14.8639 11.9464 11.9463 14.864 8.32379 14.864C4.70135 14.864 1.78367 11.9464 1.78367 8.3239C1.78367 4.70124 4.7013 1.78378 8.32379 1.78378Z"/>
</symbol><symbol viewBox="0 0 27 53" id="main-slider-arrow" xmlns="http://www.w3.org/2000/svg">
<path d="M0.00819732 26.6316C0.0364472 26.9013 0.152723 27.153 0.338187 27.3466L24.9762 52.626C25.1936 52.86 25.4933 52.9948 25.8086 52.9999C26.1238 53.0049 26.4276 52.8793 26.6516 52.652C26.8755 52.4247 27.0012 52.1143 27 51.7912C26.9988 51.4677 26.8706 51.1585 26.6446 50.9329L2.83039 26.5L26.6446 2.0671L26.6446 2.06668C26.8706 1.8415 26.9988 1.53229 27 1.20881C27.0012 0.885323 26.8755 0.575287 26.6516 0.348004C26.4276 0.120301 26.1238 -0.00489013 25.8086 0.000145266C25.4933 0.00518448 25.1936 0.139626 24.9762 0.37405L0.337137 25.6534C0.0894364 25.9117 -0.0317458 26.2709 0.00714978 26.6314L0.00819732 26.6316Z"/>
</symbol></svg>